<?xml version="1.0" encoding="UTF-8" standalone="no"?><!DOCTYPE svg PUBLIC "-//W3C//DTD SVG 1.1//EN" "http://www.w3.org/Graphics/SVG/1.1/DTD/svg11.dtd"><svg width="100%" height="100%" viewBox="0 0 600 600" version="1.1" xmlns="http://www.w3.org/2000/svg" xmlns:xlink="http://www.w3.org/1999/xlink" xml:space="preserve" xmlns:serif="http://www.serif.com/" style="fill-rule:evenodd;clip-rule:evenodd;stroke-linecap:round;stroke-linejoin:round;stroke-miterlimit:1.5;"><rect id="Монтажная-область1" serif:id="Монтажная область1" x="0" y="0" width="600" height="600" style="fill:none;"/><g><path d="M584.726,98.395c-0,-9.738 -7.907,-17.645 -17.645,-17.645l-510.027,0c-9.739,0 -17.645,7.907 -17.645,17.645l-0,319.794c-0,9.739 7.906,17.646 17.645,17.646l510.027,-0c9.738,-0 17.645,-7.907 17.645,-17.646l-0,-319.794Z" style="fill:#2c2c2c;stroke:#000;stroke-width:2.1px;"/><path d="M585.126,98.395c-0,-9.738 -7.907,-17.645 -17.645,-17.645l-494.839,0c-9.738,0 -17.645,7.907 -17.645,17.645l0,319.794c0,9.739 7.907,17.646 17.645,17.646l494.839,-0c9.738,-0 17.645,-7.907 17.645,-17.646l-0,-319.794Z" style="fill:#373737;stroke:#000;stroke-width:2.07px;"/><path d="M567.259,114.472c-0,-8.76 -7.112,-15.872 -15.872,-15.872l-462.651,0c-8.76,0 -15.872,7.112 -15.872,15.872l0,287.641c0,8.76 7.112,15.871 15.872,15.871l462.651,0c8.76,0 15.872,-7.111 15.872,-15.871l-0,-287.641Z" style="fill:#fff2eb;stroke:#000;stroke-width:1.9px;"/><path d="M236.145,435.878l-23.42,91.008l130.765,-0l22.365,-90.756l-129.71,-0.252Z" style="fill:#2c2c2c;stroke:#000;stroke-width:2.47px;"/><path d="M245.397,435.878l-23.421,91.008l130.766,-0l22.365,-90.756l-129.71,-0.252Z" style="fill:#373737;stroke:#000;stroke-width:2.47px;"/><path d="M472.584,531.093c-0,-2.827 -2.295,-5.121 -5.121,-5.121l-292.541,-0c-2.826,-0 -5.121,2.294 -5.121,5.121l0,10.243c0,2.826 2.295,5.121 5.121,5.121l292.541,-0c2.826,-0 5.121,-2.295 5.121,-5.121l-0,-10.243Z" style="fill:#2c2c2c;stroke:#000;stroke-width:2.47px;"/><g><path d="M190.379,431.455c-0,-1.916 -1.556,-3.472 -3.472,-3.472l-54.563,0c-1.917,0 -3.472,1.556 -3.472,3.472l-0,46.309c-0,1.916 1.555,3.472 3.472,3.472l54.563,-0c1.916,-0 3.472,-1.556 3.472,-3.472l-0,-46.309Z" style="fill:#eeac01;stroke:#000;stroke-width:3.1px;"/><g><path d="M139.996,442.853c-0,0.42 -0.071,0.922 0.063,1.323c0.53,1.592 2.75,1.386 4.095,1.386c2.397,-0 4.674,-0.108 6.489,-1.827c0.45,-0.426 0.966,-0.94 1.072,-1.575c0.061,-0.367 0.102,-1.208 -0.126,-1.512c-0.803,-1.071 -2.844,-0.373 -3.655,0.252c-0.714,0.55 -0.822,1.826 -0.945,2.646c-0.406,2.705 0.387,5.03 3.15,5.859c3.405,1.021 6.784,0.06 10.086,-0.809c1.597,-0.421 3.66,-0.77 5.017,-1.72c0.452,-0.316 0.444,-0.284 0.901,-0.558c1.208,-0.725 3.869,-1.927 2.457,-3.591c-0.19,-0.224 -1.139,-0.237 -1.26,0.126c-0.42,1.257 -1.326,3.302 0.567,3.78c1.398,0.353 2.919,0.189 4.347,0.189c0.193,-0 1.485,-0.279 1.701,-0.063c0.555,0.555 1.543,0.811 2.331,1.008c0.932,0.233 1.944,0.606 2.899,0.693c0.869,0.079 1.79,-0.045 2.646,0.126" style="fill:none;stroke:#000;stroke-width:1.96px;"/><path d="M142.705,452.681c0.119,0.551 0.893,0.669 1.318,0.846c1.598,0.666 3.514,0.874 5.234,0.982c2.378,0.148 4.704,-0.159 7.057,-0.315c1.861,-0.125 3.746,0.116 5.607,-0c2.051,-0.129 4.321,-0.377 6.364,-0.063c1.072,0.164 2.089,0.48 3.15,0.693" style="fill:none;stroke:#000;stroke-width:1.96px;"/><path d="M176.349,455.076c1.113,-0.021 2.226,-0.042 3.34,-0.063" style="fill:none;stroke:#000;stroke-width:1.96px;"/><path d="M145.162,459.864l21.674,-0" style="fill:none;stroke:#000;stroke-width:1.96px;"/></g></g><g><g><path d="M76.273,121.494l487.557,-0.015" style="fill:none;stroke:#f4ddd0;stroke-width:4.93px;stroke-linecap:square;"/><path d="M230.951,224.175c-0.802,-3.327 -8.059,-7.984 -11.005,-8.945c-35.846,-11.699 -20.783,27.372 -0.618,24.342" style="fill:#61e0ee;"/><path d="M234.944,223.213c-0.379,-1.574 -1.522,-3.436 -3.276,-5.174c-3.061,-3.033 -8.014,-5.92 -10.448,-6.714c-13.135,-4.287 -20.618,-1.994 -24.071,1.819c-3.638,4.017 -3.836,10.492 -0.825,16.651c3.981,8.143 13.321,15.386 23.615,13.839c2.242,-0.337 3.788,-2.43 3.451,-4.672c-0.337,-2.242 -2.43,-3.789 -4.672,-3.452c-6.647,0.999 -12.444,-4.065 -15.014,-9.323c-0.801,-1.637 -1.293,-3.308 -1.302,-4.847c-0.005,-1.02 0.195,-1.974 0.836,-2.682c0.832,-0.918 2.225,-1.354 4.133,-1.481c2.852,-0.191 6.567,0.412 11.3,1.957c1.456,0.475 4.16,2.096 6.257,3.869c0.636,0.537 1.215,1.088 1.658,1.636c0.152,0.188 0.331,0.327 0.372,0.498c0.531,2.204 2.751,3.562 4.955,3.031c2.204,-0.531 3.562,-2.752 3.031,-4.955Z"/><path d="M349.326,123.527c0,0 -15.35,-13.862 -18.114,22.834" style="fill:none;stroke:#61e0ee;stroke-width:6.16px;"/><path d="M299.662,123.485c-0,-0 12.671,-15.265 20.112,21.898" style="fill:none;stroke:#61e0ee;stroke-width:6.16px;"/><path d="M336.111,108.773c-0,0 -16.808,-9.099 -10.882,32.124" style="fill:none;stroke:#61e0ee;stroke-width:6.16px;"/><path d="M417.796,184.453c3.282,0.97 6.583,-1.29 8.889,-3.361c28.055,-25.194 -13.198,-31.538 -20.656,-12.559" style="fill:#61e0ee;"/><path d="M416.632,188.393c4.657,1.375 9.526,-1.307 12.797,-4.245c10.279,-9.23 12.046,-16.843 10.488,-21.716c-1.645,-5.15 -7.142,-8.544 -13.978,-8.99c-9.011,-0.587 -19.927,3.904 -23.733,13.589c-0.83,2.11 0.21,4.496 2.32,5.325c2.11,0.829 4.496,-0.211 5.325,-2.321c2.46,-6.259 9.73,-8.775 15.553,-8.395c1.807,0.117 3.489,0.517 4.817,1.269c0.871,0.494 1.586,1.13 1.871,2.023c0.375,1.172 0.049,2.588 -0.795,4.298c-1.266,2.562 -3.649,5.477 -7.356,8.806c-0.868,0.78 -1.907,1.618 -3.054,2.147c-0.616,0.284 -1.265,0.527 -1.928,0.331c-2.174,-0.642 -4.461,0.602 -5.103,2.776c-0.642,2.174 0.602,4.461 2.776,5.103Z"/><path d="M436.014,419.645c3.601,-10.934 9.003,-31.609 5.682,-49.563c-14.953,-80.847 7.895,-98.549 -5.035,-147.593c-4.49,-17.029 -12.049,-36.25 -23.554,-49.792c-25.285,-29.762 -70.736,-42.913 -108.73,-32.785c-15.213,4.055 -28.662,11.727 -41.923,20.034c-46.136,28.9 -52.259,83.377 -42.791,128.248c4.191,19.864 23.673,49.897 22.586,70.194c-1.387,25.91 -0.765,44.426 3.376,60.884" style="fill:#61e0ee;"/><clipPath id="_clip1"><path d="M436.014,419.645c3.601,-10.934 9.003,-31.609 5.682,-49.563c-14.953,-80.847 7.895,-98.549 -5.035,-147.593c-4.49,-17.029 -12.049,-36.25 -23.554,-49.792c-25.285,-29.762 -70.736,-42.913 -108.73,-32.785c-15.213,4.055 -28.662,11.727 -41.923,20.034c-46.136,28.9 -52.259,83.377 -42.791,128.248c4.191,19.864 23.673,49.897 22.586,70.194c-1.387,25.91 -0.765,44.426 3.376,60.884"/></clipPath><g clip-path="url(#_clip1)"><path d="M311.776,236.835c0,0 -3.068,24.199 -31.597,24.838c-28.53,0.639 -32.591,-28.246 -32.591,-28.246l64.188,3.408Z" style="fill:#4fcbe0;"/><path d="M432.509,216.023c0,-0 -3.067,24.198 -31.597,24.837c-28.53,0.639 -32.591,-28.246 -32.591,-28.246l64.188,3.409Z" style="fill:#4fcbe0;"/><path d="M286.845,418.961l127.886,-0c0.386,-1.267 0.666,-2.432 0.87,-3.471c3.867,-19.743 3.729,-57.468 -2.415,-77.095c-2.133,-6.816 -5.793,-14.49 -11.476,-19.852c-12.49,-11.785 -64.398,-9.181 -83.561,-4.835c-7.673,1.741 -14.487,4.922 -21.21,8.358c-14.911,7.62 -20.253,58.712 -10.094,96.895Z" style="fill:#b7f8ff;"/><path d="M246.711,418.961c-5.108,-20.613 -6.49,-42.975 -5.562,-60.855c2.136,-41.133 -31.314,-50.453 -25.461,-121.513c14.534,-42.409 15.089,-40.107 27.653,-55.445c0,0 -13.147,39.968 -1.193,70.728c11.954,30.759 32.174,73.418 32.59,117.491c0.186,19.771 1.634,36.31 4.13,49.594l-32.157,-0Z" style="fill:#4fcbe0;"/></g><path d="M439.915,420.93c3.748,-11.38 9.276,-32.908 5.82,-51.595c-8.865,-47.933 -4.259,-73.405 -1.935,-96.58c1.613,-16.093 2.156,-31.122 -3.167,-51.313c-4.638,-17.591 -12.511,-37.416 -24.396,-51.405c-26.261,-30.911 -73.456,-44.613 -112.917,-34.094c-15.614,4.161 -29.437,11.996 -43.047,20.522c-47.735,29.902 -54.426,86.15 -44.629,132.577c2.139,10.138 8.136,22.888 13.504,35.676c4.994,11.9 9.515,23.81 8.999,33.45c-1.415,26.432 -0.73,45.317 3.495,62.107l1.002,3.983l7.967,-2.005l-1.002,-3.983c-4.058,-16.127 -4.618,-34.274 -3.258,-59.663c0.46,-8.609 -2.46,-18.895 -6.545,-29.457c-5.694,-14.724 -13.646,-30.059 -16.124,-41.804c-9.14,-43.315 -3.584,-96.022 40.952,-123.919c12.912,-8.089 25.989,-15.598 40.801,-19.547c36.526,-9.735 80.234,2.865 104.541,31.476c11.126,13.096 18.372,31.713 22.713,48.18c6.31,23.932 3.82,40.219 1.647,60.383c-2.257,20.949 -4.259,45.927 3.321,86.91c3.186,17.222 -2.09,37.043 -5.544,47.531l-1.285,3.902l7.803,2.569l1.284,-3.901Z"/><path d="M424.539,242.247c-1.868,0.134 -3.276,1.758 -3.142,3.626c0.133,1.867 1.757,3.275 3.625,3.141c1.867,-0.133 3.275,-1.757 3.142,-3.625c-0.134,-1.867 -1.758,-3.275 -3.625,-3.142Z" style="fill:#b7f8ff;"/><path d="M256.997,260.391c-1.868,0.133 -3.275,1.758 -3.142,3.625c0.133,1.868 1.758,3.275 3.625,3.142c1.868,-0.133 3.275,-1.758 3.142,-3.625c-0.133,-1.868 -1.758,-3.275 -3.625,-3.142Z" style="fill:#b7f8ff;"/><g><path d="M364.09,269.229c-1.186,4.967 -1.443,14.306 -4.315,18.4c-1.393,1.985 -4.495,2.086 -6.516,2.153c-11.612,0.383 -11.446,-11.513 -13.181,-21.855" style="fill:#ededed;"/><path d="M361.094,268.513c-0.719,3.009 -1.106,7.607 -1.922,11.698c-0.445,2.228 -0.971,4.298 -1.919,5.649c-0.263,0.376 -0.749,0.459 -1.203,0.566c-0.995,0.233 -2.056,0.25 -2.893,0.277c-2.055,0.068 -3.61,-0.326 -4.774,-1.192c-1.193,-0.887 -1.954,-2.212 -2.544,-3.743c-1.561,-4.047 -1.89,-9.39 -2.723,-14.351c-0.281,-1.677 -1.871,-2.81 -3.548,-2.528c-1.677,0.281 -2.809,1.871 -2.528,3.548c0.903,5.381 1.358,11.158 3.051,15.548c1.036,2.688 2.52,4.912 4.615,6.47c2.125,1.581 4.903,2.53 8.654,2.406c1.468,-0.048 3.4,-0.152 5.079,-0.714c1.56,-0.522 2.919,-1.41 3.858,-2.749c1.35,-1.924 2.284,-4.808 2.917,-7.981c0.8,-4.011 1.168,-8.522 1.873,-11.473c0.395,-1.653 -0.627,-3.317 -2.281,-3.712c-1.654,-0.395 -3.317,0.627 -3.712,2.281Z"/><path d="M349.001,234.05c-9.332,1.246 -16.265,7.075 -15.473,13.008c0.792,5.933 9.012,9.738 18.344,8.492c9.333,-1.246 16.266,-7.075 15.474,-13.008c-0.792,-5.933 -9.012,-9.738 -18.345,-8.492Z"/><path d="M348.901,252.55c0.46,5.204 1.694,10.142 2.453,15.277c0.248,1.682 1.815,2.846 3.497,2.598c1.682,-0.248 2.846,-1.816 2.598,-3.498c-0.741,-5.015 -1.961,-9.837 -2.411,-14.92c-0.15,-1.694 -1.647,-2.947 -3.34,-2.797c-1.694,0.15 -2.947,1.647 -2.797,3.34Z"/><path d="M374.26,259.814c-8.022,5.35 -15.901,7.825 -23.594,7.274c-7.694,-0.551 -15.148,-4.124 -22.342,-10.589c-1.265,-1.136 -3.214,-1.032 -4.351,0.233c-1.136,1.264 -1.032,3.214 0.233,4.35c8.356,7.508 17.084,11.511 26.02,12.151c8.936,0.64 18.135,-2.078 27.453,-8.294c1.414,-0.943 1.797,-2.858 0.853,-4.272c-0.943,-1.415 -2.858,-1.797 -4.272,-0.853Z"/><path d="M378.605,152.156c-3.647,-0.826 -6.956,0.038 -7.385,1.929c-0.428,1.891 2.185,4.097 5.832,4.924c3.647,0.827 6.956,-0.037 7.385,-1.928c0.428,-1.891 -2.185,-4.098 -5.832,-4.925Z" style="fill:#b7f8ff;"/><path d="M249.5,177.27c-2.195,3.028 -2.702,6.41 -1.132,7.548c1.57,1.138 4.626,-0.396 6.821,-3.424c2.195,-3.028 2.702,-6.41 1.132,-7.548c-1.57,-1.138 -4.626,0.396 -6.821,3.424Z" style="fill:#b7f8ff;"/><path d="M403.648,162.825c-19.213,-1.35 -35.907,13.151 -37.257,32.364c-1.35,19.212 13.152,35.906 32.364,37.256c19.213,1.351 35.907,-13.151 37.257,-32.364c1.35,-19.212 -13.152,-35.906 -32.364,-37.256Z" style="fill:#fff;stroke:#000;stroke-width:6.16px;"/><path d="M281.696,181.78c-19.212,-1.35 -35.906,13.152 -37.257,32.364c-1.35,19.212 13.152,35.907 32.365,37.257c19.212,1.35 35.906,-13.152 37.256,-32.364c1.35,-19.213 -13.152,-35.907 -32.364,-37.257Z" style="fill:#fff;stroke:#000;stroke-width:6.16px;"/><path d="M398.499,192.881c-6.824,-0.479 -12.754,4.672 -13.233,11.496c-0.48,6.824 4.671,12.753 11.495,13.233c6.824,0.479 12.754,-4.672 13.233,-11.496c0.48,-6.824 -4.671,-12.753 -11.495,-13.233Z"/><path d="M278.142,210.227c-6.824,-0.479 -12.754,4.671 -13.233,11.496c-0.48,6.824 4.671,12.753 11.495,13.233c6.824,0.479 12.754,-4.672 13.233,-11.496c0.48,-6.824 -4.671,-12.753 -11.495,-13.233Z"/><path d="M399.892,197.961c-1.916,-0.135 -3.581,1.311 -3.716,3.227c-0.134,1.916 1.312,3.581 3.228,3.716c1.916,0.134 3.581,-1.312 3.715,-3.228c0.135,-1.916 -1.311,-3.581 -3.227,-3.715Z" style="fill:#fff;"/><path d="M279.535,215.306c-1.916,-0.134 -3.581,1.312 -3.715,3.228c-0.135,1.916 1.311,3.581 3.227,3.716c1.916,0.134 3.581,-1.312 3.716,-3.228c0.134,-1.916 -1.312,-3.581 -3.228,-3.716Z" style="fill:#fff;"/></g></g><path d="M512.291,333.726c0,-0 -27.496,13.402 -43.245,3.792c-15.75,-9.61 -10.8,-24.788 3.102,-22.52c13.903,2.268 27.168,3.195 35.943,-3.937c8.776,-7.132 21.633,14.376 4.2,22.665Z" style="fill:#d6c295;stroke:#000;stroke-width:6.16px;"/></g><g><path d="M441.268,291.349c-0,0 28.08,47.488 -122.591,114.04c-11.629,-2.017 -14.33,-8.515 -14.33,-8.515c0,-0 43.617,-12.586 83.812,-44.876c43.597,-35.024 53.109,-60.649 53.109,-60.649Z" style="fill:#7b4722;stroke:#000;stroke-width:6.68px;"/><path d="M233.957,372.138c3.56,-5.506 10.729,-7.392 16.538,-4.351c17.767,9.235 53.614,28.032 67.154,36.376c5.971,3.68 -6.477,16.913 -19.283,37.927c-3.368,5.567 -10.436,7.628 -16.269,4.746c-21.656,-10.716 -41.047,-20.958 -54.234,-28.073c-4.592,-2.501 -7.934,-6.802 -9.223,-11.869c-1.288,-5.068 -0.407,-10.443 2.433,-14.833c4.335,-6.708 9.162,-14.17 12.884,-19.923Z" style="fill:#7b4722;stroke:#000;stroke-width:4.95px;"/><path d="M239.85,361.171l-25.848,23.296l79.17,45.605l25.196,-24.295l-78.518,-44.606Z" style="fill:#ad6c4a;stroke:#000;stroke-width:4.95px;"/><path d="M238.081,377.704c2.526,0.53 4.147,3.011 3.618,5.537c-0.53,2.526 -3.011,4.147 -5.538,3.618c-2.526,-0.53 -4.147,-3.011 -3.617,-5.538c0.53,-2.526 3.011,-4.147 5.537,-3.617Z" style="fill:#ffb25c;stroke:#000;stroke-width:4.95px;"/><path d="M290.33,407.9c2.527,0.53 4.147,3.011 3.618,5.537c-0.53,2.527 -3.011,4.147 -5.537,3.618c-2.527,-0.53 -4.148,-3.011 -3.618,-5.537c0.53,-2.527 3.011,-4.148 5.537,-3.618Z" style="fill:#ffb25c;stroke:#000;stroke-width:4.95px;"/></g><g><path d="M305.323,336.235c0,0 24.204,112.578 35.357,114.355c11.153,1.776 182.998,-57.162 182.998,-57.162c0,-0 -24.27,-105.773 -34.456,-114.602c-10.186,-8.83 -183.899,57.409 -183.899,57.409Z" style="fill:#fff2eb;stroke:#000;stroke-width:4.68px;"/><path d="M413.563,367.656l-108.24,-31.421l108.24,31.421Z" style="fill:none;stroke:#000;stroke-width:5.46px;"/><path d="M488.566,279.156l-75.003,88.5" style="fill:none;stroke:#000;stroke-width:5.46px;"/><path d="M339.167,449.127l62.401,-83.505" style="fill:none;stroke:#000;stroke-width:5.46px;"/><path d="M423.27,355.835l99.194,37.001" style="fill:none;stroke:#000;stroke-width:5.46px;"/></g><path d="M304.416,374.785c-0,0 -30.46,-2.8 -38.943,-19.185c-8.482,-16.384 3.622,-26.794 14.332,-17.646c10.711,9.149 21.572,16.821 32.774,15.274c11.201,-1.547 11.04,23.511 -8.163,21.557Z" style="fill:#d6c295;stroke:#000;stroke-width:6.16px;"/><path d="M109.951,311.712l68.076,-0" style="fill:none;stroke:#000;stroke-width:4.95px;"/><path d="M139.305,351.683l68.076,0" style="fill:none;stroke:#000;stroke-width:4.95px;"/><path d="M139.617,331.698l38.098,-0" style="fill:none;stroke:#000;stroke-width:4.95px;"/><path d="M85.201,211.253c-0,-2.213 -1.797,-4.01 -4.01,-4.01l-53.487,-0c-2.214,-0 -4.011,1.797 -4.011,4.01l0,58.894c0,2.213 1.797,4.01 4.011,4.01l53.487,0c2.213,0 4.01,-1.797 4.01,-4.01l-0,-58.894Z" style="fill:#eeac01;stroke:#000;stroke-width:3.43px;"/><path d="M564.643,426.591c0,-2.213 -1.796,-4.01 -4.01,-4.01l-53.487,-0c-2.213,-0 -4.01,1.797 -4.01,4.01l0,58.894c0,2.213 1.797,4.01 4.01,4.01l53.487,0c2.214,0 4.01,-1.797 4.01,-4.01l0,-58.894Z" style="fill:#eeac01;stroke:#000;stroke-width:3.43px;"/><circle cx="517.014" cy="108.771" r="4.352" style="fill:#d3d2b3;"/><circle cx="531.32" cy="108.771" r="4.352" style="fill:#f4b303;"/><circle cx="544.792" cy="108.771" r="4.352" style="fill:#f9613d;"/><path d="M105.257,484.43c-0,0 20.374,-25.225 41.719,-7.761c21.344,17.463 -12.613,50.45 -40.749,42.689" style="fill:none;stroke:#000;stroke-width:9.9px;"/><path d="M113.019,460.141c-0,-4.265 -3.463,-7.727 -7.728,-7.727l-78.655,-0c-4.265,-0 -7.727,3.462 -7.727,7.727l-0,78.655c-0,4.265 3.462,7.728 7.727,7.728l78.655,-0c4.265,-0 7.728,-3.463 7.728,-7.728l-0,-78.655Z" style="fill:#61e0ee;stroke:#000;stroke-width:4.55px;stroke-linecap:square;"/><path d="M77.277,395.402c-2.234,8.755 -6.496,15.366 -11.649,17.714c1.995,3.057 3.167,6.781 3.167,10.797c0,10.387 -7.84,18.82 -17.498,18.82c-9.657,0 -17.498,-8.433 -17.498,-18.82c0,-9.733 6.884,-17.751 15.697,-18.722c-3.399,-5.96 -5.524,-14.423 -5.524,-23.805c0,-18.024 7.841,-32.657 17.499,-32.657c6.792,-0 12.685,7.238 15.584,17.802c1.629,-0.592 3.387,-0.915 5.22,-0.915c8.45,0 15.311,6.861 15.311,15.311c-0,8.45 -6.861,15.311 -15.311,15.311c-1.75,0 -3.432,-0.294 -4.998,-0.836Z" style="fill:#fff;fill-opacity:0.5;"/><path d="M33.583,233.93c2.529,-0.337 4.51,-1.178 6.716,-2.403c0.957,-0.532 1.969,-0.904 2.898,-1.485c0.789,-0.493 1.343,-0.976 1.343,-1.979c0,-0.236 0.224,-0.632 0,-0.707c-0.952,-0.317 -2.364,0.465 -3.04,0.99c-0.625,0.486 -1.494,0.579 -2.12,1.06c-1.036,0.796 -1.682,2.463 -1.767,3.746c-0.06,0.896 -0.357,2.84 0.565,3.393c0.357,0.214 0.929,0.142 1.343,0.142c1.08,-0 2.104,0.012 3.181,-0.142c2.082,-0.297 4.165,-1.455 6.009,-2.403c2.014,-1.036 4.012,-1.921 5.584,-3.605c0.642,-0.688 1.01,-1.286 1.272,-2.191c0.059,-0.203 -0.06,-0.718 0.071,-0.849c0.108,-0.108 0.099,0.226 0.071,0.283c-0.185,0.367 -0.462,0.74 -0.637,1.131c-0.324,0.729 -0.353,1.759 -0.353,2.545c0,0.132 -0.07,0.571 0,0.636c0.055,0.051 0.363,0.193 0.424,0.212c2.002,0.633 4.342,-0.532 6.009,-1.484c0.641,-0.367 1.363,-0.85 2.06,-1.112c0.026,-0.01 0.678,-0.197 0.696,-0.161c0.282,0.563 0.111,1.511 0.212,2.121c0.285,1.707 2.367,1.615 3.676,1.484c0.207,-0.02 0.363,-0.212 0.566,-0.212" style="fill:none;stroke:#000;stroke-width:2.75px;"/><path d="M36.482,242.342c1.346,-0 2.682,-0.154 4.029,-0.212c4.332,-0.189 8.671,-0.196 13.006,-0.283c6.525,-0.131 13.056,0.071 19.581,0.071" style="fill:none;stroke:#000;stroke-width:2.75px;"/><path d="M516.09,442.031c-0,0.936 -0.532,1.892 -0.126,2.839c0.526,1.228 2.363,1.275 3.469,0.946c0.628,-0.187 1.316,-1.176 1.703,-1.64c1.038,-1.247 2.435,-2.375 2.712,-4.037c0.041,-0.248 0.194,-0.936 0.063,-1.198c-0.763,-1.525 -3.059,-1.478 -4.168,-0.369c-0.164,0.164 -0.446,0.227 -0.563,0.432c-0.994,1.745 -0.439,4.341 0.442,5.992c0.304,0.569 0.829,1.048 1.324,1.451c0.339,0.275 0.775,0.716 1.199,0.928c3.262,1.631 7.689,-0.133 10.596,-1.748c1.952,-1.085 4.1,-2.152 4.1,-4.668c-0,-0.325 0.037,-0.694 -0.063,-1.009c-0.361,-1.133 -2.307,-1.043 -3.154,-0.694c-1.179,0.486 -2.373,1.395 -3.09,2.46c-1.174,1.742 -1.207,4.283 0.567,5.614c1.256,0.941 2.958,0.923 4.447,0.766c2.247,-0.237 4.253,-1.313 6.023,-2.659c0.875,-0.664 2.094,-1.316 2.649,-2.333c0.173,-0.316 0.215,-0.745 0.379,-1.073c0.071,-0.143 -0.158,0.285 -0.189,0.442c-0.056,0.276 -0.094,0.878 -0,1.135c0.376,1.028 1.233,1.509 2.27,1.703c1.346,0.252 3.009,-0.01 4.352,-0.189c0.939,-0.125 1.892,-0.517 1.892,0.757" style="fill:none;stroke:#000;stroke-width:2.45px;"/><path d="M514.259,460.359c0.266,0.134 0.08,1.354 0.567,1.388c0.442,0.031 0.885,0.04 1.328,0.05c0.517,0.012 1.104,0.098 1.633,-0.034c1.688,-0.422 3.796,-1.598 4.482,-3.296c0.188,-0.467 0.246,-1.094 0.315,-1.577c0.075,-0.524 0.378,-1.718 -0.063,-2.144c-0.088,-0.085 -0.604,-0.063 -0.694,-0.063c-0.695,-0 -1.796,0.392 -2.207,1.009c-0.273,0.409 -0.189,0.851 -0.189,1.324c-0,0.62 -0.033,1.224 0.126,1.83c0.362,1.379 2.111,1.941 3.343,2.018c2.696,0.168 5.447,-0.245 8.136,-0c2.207,0.2 4.454,0.717 6.686,0.504c1.58,-0.15 3.154,-0.525 4.73,-0.63c3.394,-0.226 6.791,-0.505 10.218,-0.505" style="fill:none;stroke:#000;stroke-width:2.45px;"/><path d="M519.054,471.68l0,0.946c0,0.155 -0,0.251 0.063,0.379l0,0.126c0.602,-2.407 3.775,-2.784 5.81,-2.784c0.15,-0 0.232,0.48 0.245,0.576c0.055,0.385 -0.192,1.45 0.379,1.64c0.989,0.33 2.406,-0.318 3.343,-0.568c0.235,-0.062 1.009,-0.441 1.198,-0.252c0.954,0.954 2.412,0.562 3.721,0.631c3.332,0.175 6.629,-0.189 9.966,-0.189c1.058,-0 2.162,0.087 3.217,-0c0.068,-0.006 1.009,-0.027 1.009,-0.253" style="fill:none;stroke:#000;stroke-width:2.45px;"/></g><g><path d="M374.578,114.455c-0.613,-4.216 -4.533,-7.142 -8.749,-6.53l-99.945,14.515c-4.216,0.613 -7.142,4.533 -6.53,8.749l2.219,15.278c0.612,4.216 4.532,7.142 8.749,6.53l99.945,-14.515c4.216,-0.612 7.142,-4.533 6.529,-8.749l-2.218,-15.278Z" style="fill:#9daccd;stroke:#000;stroke-width:5.21px;"/><path d="M313.869,117.414c0,0 66.102,9.878 77.582,-23.733c11.48,-33.611 -12.987,-51.873 -41.637,-39.921c-28.65,11.952 -54.85,46.142 -54.85,46.142c0,0 -30.005,-8.108 -41.314,5.221c-11.309,13.33 -17.167,26.646 -2.435,31.519c14.732,4.873 62.654,-19.228 62.654,-19.228Z" style="fill:#735d93;stroke:#000;stroke-width:5.93px;"/><path d="M374.148,136.876c-0,0 38.493,-9.338 36.563,-3.549c-1.93,5.79 -37.638,26.901 -114.831,15.966c70.345,-10.731 78.268,-12.417 78.268,-12.417Z" style="fill:#503a71;stroke:#000;stroke-width:4.95px;"/><path d="M357.346,124.906l-54.021,9.612l-0,5.399l54.021,-9.612l0,-5.399Z" style="fill:#fff;"/><circle cx="300.15" cy="137.198" r="4.677" style="fill:#ffb25c;stroke:#000;stroke-width:4.95px;"/><circle cx="361.41" cy="127.581" r="4.282" style="fill:#ffb25c;stroke:#000;stroke-width:4.95px;"/></g></svg>